<svg width="165" height="56" viewBox="0 0 165 56" fill="none" xmlns="http://www.w3.org/2000/svg">
<g clip-path="url(#clip0_224_244)">
<path d="M6.72913 0H158.268C161.964 0 164.968 3.0128 164.968 6.72V49.28C164.968 52.9872 161.964 56 158.268 56H6.72913C3.03279 56 0.0288086 52.9872 0.0288086 49.28V6.72C0.0288086 3.0128 3.03279 0 6.72913 0Z" fill="white"/>
<path d="M36.1338 26.7232C36.1003 22.7136 39.4058 20.7648 39.551 20.6752C37.6749 17.9424 34.7714 17.5616 33.7552 17.528C31.3208 17.2704 28.9533 18.9952 27.7138 18.9952C26.4519 18.9952 24.5311 17.5616 22.4763 17.5952C19.8297 17.64 17.3394 19.1744 15.9882 21.5712C13.1852 26.4432 15.2735 33.6112 17.9648 37.5536C19.316 39.48 20.8794 41.6416 22.9454 41.5632C24.9555 41.4848 25.7148 40.2752 28.1381 40.2752C30.5502 40.2752 31.2538 41.5632 33.3532 41.5184C35.5196 41.4848 36.8709 39.5808 38.1774 37.632C39.7297 35.4256 40.355 33.2416 40.3774 33.1296C40.3215 33.1072 36.1785 31.5168 36.1338 26.7232ZM32.1695 14.9408C33.2527 13.5856 33.9897 11.7376 33.7887 9.85596C32.2253 9.92316 30.2599 10.9424 29.132 12.2752C28.1381 13.4512 27.2447 15.3664 27.4681 17.1696C29.2325 17.304 31.0416 16.2736 32.1695 14.9408ZM65.3025 41.2832H62.4884L60.9473 36.4224H55.5871L54.1242 41.2832H51.3882L56.6926 24.7408H59.9758L65.3025 41.2832ZM60.4895 34.384L59.0936 30.072C58.9484 29.624 58.6692 28.5936 58.2672 26.9584H58.2114C58.0439 27.664 57.787 28.7056 57.4297 30.072L56.0561 34.384H60.4895ZM78.9377 35.1792C78.9377 37.2064 78.3905 38.808 77.285 39.984C76.3022 41.0368 75.0738 41.552 73.6221 41.552C72.0475 41.552 70.9196 40.992 70.2273 39.8608V46.1216H67.5807V33.2752C67.5807 31.9984 67.5472 30.6992 67.4801 29.3552H69.8029L69.9481 31.248H69.9928C70.875 29.8256 72.215 29.1088 74.0018 29.1088C75.4089 29.1088 76.5702 29.6688 77.5083 30.7776C78.4687 31.8976 78.9377 33.3536 78.9377 35.1792ZM76.2464 35.2688C76.2464 34.104 75.9896 33.152 75.4647 32.4016C74.8952 31.6176 74.1246 31.2256 73.1643 31.2256C72.5166 31.2256 71.9247 31.4496 71.3887 31.8752C70.8638 32.312 70.5065 32.872 70.3501 33.5776C70.2719 33.9024 70.2273 34.1712 70.2273 34.384V36.3776C70.2273 37.24 70.4953 37.9792 71.0202 38.5728C71.545 39.1664 72.2374 39.4688 73.0861 39.4688C74.08 39.4688 74.8505 39.0768 75.4089 38.3152C75.9672 37.5424 76.2464 36.5344 76.2464 35.2688ZM92.6063 35.1792C92.6063 37.2064 92.0592 38.808 90.9536 39.984C89.9709 41.0368 88.7425 41.552 87.2908 41.552C85.7162 41.552 84.5883 40.992 83.8959 39.8608V46.1216H81.2493V33.2752C81.2493 31.9984 81.2158 30.6992 81.1488 29.3552H83.4716L83.6168 31.248H83.6614C84.5436 29.8256 85.8837 29.1088 87.6704 29.1088C89.0775 29.1088 90.2389 29.6688 91.1769 30.7776C92.1373 31.8976 92.6063 33.3536 92.6063 35.1792ZM89.9151 35.2688C89.9151 34.104 89.6582 33.152 89.1334 32.4016C88.5638 31.6176 87.7933 31.2256 86.8329 31.2256C86.1852 31.2256 85.5934 31.4496 85.0573 31.8752C84.5325 32.312 84.1863 32.872 84.0188 33.5776C83.9406 33.9024 83.8959 34.1712 83.8959 34.384V36.3776C83.8959 37.24 84.1639 37.9792 84.6888 38.5728C85.2137 39.1664 85.906 39.4688 86.7547 39.4688C87.7486 39.4688 88.5303 39.0768 89.0775 38.3152C89.647 37.5424 89.9151 36.5344 89.9151 35.2688ZM107.905 36.6464C107.905 38.0576 107.414 39.2 106.443 40.0848C105.37 41.048 103.874 41.5296 101.953 41.5296C100.178 41.5296 98.7595 41.1824 97.6874 40.4992L98.3016 38.2928C99.463 38.976 100.736 39.3232 102.121 39.3232C103.115 39.3232 103.896 39.0992 104.444 38.6512C105.002 38.2032 105.281 37.5984 105.281 36.848C105.281 36.176 105.047 35.616 104.6 35.1568C104.142 34.6976 103.383 34.272 102.322 33.88C99.4072 32.7936 97.9666 31.2144 97.9666 29.1424C97.9666 27.7872 98.4803 26.6784 99.4965 25.8048C100.513 24.9424 101.864 24.5056 103.55 24.5056C105.047 24.5056 106.297 24.7632 107.291 25.2896L106.621 27.44C105.683 26.936 104.633 26.6784 103.45 26.6784C102.523 26.6784 101.786 26.9136 101.261 27.3616C100.825 27.776 100.602 28.2688 100.602 28.8624C100.602 29.512 100.859 30.0608 101.361 30.4752C101.797 30.8672 102.601 31.2928 103.762 31.752C105.181 32.3232 106.219 32.9952 106.889 33.768C107.57 34.5408 107.905 35.504 107.905 36.6464ZM116.66 31.3488H113.746V37.1392C113.746 38.6064 114.26 39.3456 115.287 39.3456C115.756 39.3456 116.147 39.3008 116.459 39.2224L116.538 41.2384C116.013 41.4288 115.332 41.5296 114.483 41.5296C113.433 41.5296 112.629 41.2048 112.037 40.5664C111.445 39.928 111.155 38.8528 111.155 37.352V31.3376H109.424V29.3552H111.155V27.1712L113.746 26.3872V29.3552H116.66V31.3488ZM129.771 35.224C129.771 37.0608 129.246 38.5616 128.207 39.7376C127.113 40.9472 125.661 41.552 123.852 41.552C122.11 41.552 120.714 40.9696 119.676 39.816C118.637 38.6624 118.123 37.1952 118.123 35.4256C118.123 33.5776 118.659 32.0656 119.72 30.8896C120.792 29.7136 122.233 29.12 124.042 29.12C125.784 29.12 127.191 29.7024 128.252 30.8672C129.268 31.9872 129.771 33.4432 129.771 35.224ZM127.035 35.28C127.035 34.1824 126.8 33.2528 126.331 32.4688C125.773 31.5168 124.98 31.0464 123.953 31.0464C122.892 31.0464 122.077 31.5168 121.529 32.4688C121.049 33.2528 120.826 34.2048 120.826 35.336C120.826 36.4336 121.06 37.3744 121.529 38.1472C122.099 39.0992 122.903 39.5696 123.93 39.5696C124.935 39.5696 125.728 39.088 126.309 38.1248C126.789 37.3184 127.035 36.3776 127.035 35.28ZM138.37 31.6848C138.113 31.64 137.834 31.6176 137.532 31.6176C136.605 31.6176 135.879 31.9648 135.377 32.6704C134.941 33.2864 134.718 34.0816 134.718 35.0224V41.2832H132.071V33.1072C132.071 31.7296 132.049 30.4752 131.993 29.3552H134.294L134.394 31.64H134.472C134.751 30.856 135.187 30.2176 135.79 29.7472C136.382 29.3216 137.018 29.1088 137.7 29.1088C137.945 29.1088 138.169 29.1312 138.358 29.1536L138.37 31.6848ZM150.184 34.7536C150.184 35.224 150.151 35.6272 150.084 35.952H142.155C142.189 37.128 142.568 38.0352 143.305 38.6512C143.975 39.2 144.835 39.48 145.896 39.48C147.069 39.48 148.141 39.2896 149.101 38.92L149.514 40.7568C148.387 41.2496 147.058 41.496 145.528 41.496C143.685 41.496 142.233 40.9472 141.184 39.8608C140.134 38.7744 139.609 37.3072 139.609 35.4816C139.609 33.6896 140.1 32.1888 141.083 30.9904C142.111 29.7136 143.495 29.0752 145.237 29.0752C146.946 29.0752 148.253 29.7136 149.124 30.9904C149.827 32.0208 150.184 33.264 150.184 34.7536ZM147.661 34.0704C147.683 33.2864 147.504 32.6032 147.147 32.032C146.689 31.2928 145.986 30.9232 145.048 30.9232C144.188 30.9232 143.484 31.2816 142.948 31.9984C142.513 32.5696 142.245 33.264 142.166 34.0592L147.661 34.0704Z" fill="black"/>
<path d="M59.2163 18.8272H57.8316L57.0722 16.4416H54.4368L53.7109 18.8272H52.3708L54.9728 10.696H56.5809L59.2163 18.8272ZM56.8377 15.4336L56.1565 13.3056C56.0895 13.0928 55.9555 12.5776 55.7433 11.7712H55.721C55.6317 12.1184 55.52 12.6224 55.3302 13.3056L54.6601 15.4336H56.8377ZM65.738 12.9584L63.5269 18.8272H62.265L60.1209 12.9584H61.5168L62.5107 16.0608C62.6782 16.576 62.8233 17.0688 62.935 17.5392H62.9685C63.069 17.1136 63.2142 16.6208 63.3929 16.0608L64.3756 12.9584H65.738ZM70.4505 18.8272L70.35 18.1552H70.3165C69.9145 18.6928 69.345 18.9616 68.6079 18.9616C67.5582 18.9616 66.8212 18.2224 66.8212 17.2368C66.8212 15.792 68.0719 15.0416 70.2384 15.0416V14.9296C70.2384 14.1568 69.8252 13.776 69.0211 13.776C68.4404 13.776 67.9379 13.9216 67.4912 14.2128L67.2232 13.3616C67.7592 13.0256 68.4404 12.8576 69.2333 12.8576C70.7632 12.8576 71.5337 13.664 71.5337 15.288V17.4496C71.5337 18.0432 71.5561 18.5024 71.6231 18.8496L70.4505 18.8272ZM70.2719 15.904C68.8313 15.904 68.1054 16.2512 68.1054 17.0912C68.1054 17.7072 68.4739 18.0096 68.9988 18.0096C69.6577 18.0096 70.2719 17.5056 70.2719 16.8112V15.904ZM74.4261 11.9952C73.9905 11.9952 73.6555 11.6592 73.6555 11.2112C73.6555 10.7632 74.0017 10.4384 74.4484 10.4384C74.8951 10.4384 75.2524 10.7632 75.2413 11.2112C75.2413 11.6816 74.9062 11.9952 74.4261 11.9952ZM73.8007 12.9584H75.0961V18.816H73.8007V12.9584ZM77.4077 10.2704H78.7031V18.816H77.4077V10.2704ZM84.2197 18.8272L84.1192 18.1552H84.0857C83.6837 18.6928 83.1141 18.9616 82.3771 18.9616C81.3274 18.9616 80.5903 18.2224 80.5903 17.2368C80.5903 15.792 81.8411 15.0416 84.0075 15.0416V14.9296C84.0075 14.1568 83.5943 13.776 82.7903 13.776C82.2096 13.776 81.7071 13.9216 81.2604 14.2128L80.9924 13.3504C81.5284 13.0144 82.2096 12.8464 83.0025 12.8464C84.5324 12.8464 85.3029 13.6528 85.3029 15.2768V17.4384C85.3029 18.032 85.3252 18.4912 85.3811 18.8384H84.2197V18.8272ZM84.041 15.904C82.6004 15.904 81.8746 16.2512 81.8746 17.0912C81.8746 17.7072 82.2431 18.0096 82.7679 18.0096C83.4268 18.0096 84.041 17.5056 84.041 16.8112V15.904ZM90.5738 18.9616C89.7474 18.9616 89.1332 18.6144 88.7312 17.92H88.7089L88.6307 18.8272H87.5252C87.5587 18.3568 87.5698 17.8304 87.5698 17.248V10.2704H88.8764V13.8208H88.8987C89.2896 13.1712 89.9038 12.8464 90.7637 12.8464C92.1707 12.8464 93.1534 14.056 93.1534 15.8144C93.1534 17.6288 92.059 18.9616 90.5738 18.9616ZM90.3058 13.8656C89.5576 13.8656 88.8764 14.5152 88.8764 15.4224V16.4528C88.8764 17.2592 89.4906 17.92 90.2835 17.92C91.255 17.92 91.8357 17.1248 91.8357 15.8592C91.8357 14.672 91.2327 13.8656 90.3058 13.8656ZM95.0742 10.2704H96.3696V18.816H95.0742V10.2704ZM103.438 16.2064H99.5411C99.5634 17.3152 100.3 17.9424 101.384 17.9424C101.964 17.9424 102.489 17.8416 102.958 17.6624L103.159 18.5696C102.612 18.816 101.964 18.928 101.205 18.928C99.3736 18.928 98.2903 17.7744 98.2903 15.9712C98.2903 14.1792 99.3959 12.824 101.06 12.824C102.545 12.824 103.494 13.9328 103.494 15.6128C103.494 15.848 103.483 16.0496 103.438 16.2064ZM102.255 15.2768C102.255 14.3696 101.797 13.7312 100.97 13.7312C100.222 13.7312 99.6416 14.3808 99.5522 15.2768H102.255ZM111.311 18.9616C109.603 18.9616 108.497 17.6848 108.497 15.9488C108.497 14.1344 109.625 12.8464 111.412 12.8464C113.098 12.8464 114.226 14.0672 114.226 15.848C114.226 17.6736 113.065 18.9616 111.311 18.9616ZM111.367 13.7984C110.429 13.7984 109.826 14.6832 109.826 15.904C109.826 17.1136 110.44 17.9872 111.356 17.9872C112.272 17.9872 112.886 17.0464 112.886 15.8704C112.875 14.6832 112.283 13.7984 111.367 13.7984ZM121.205 18.8272H119.91V15.456C119.91 14.4144 119.508 13.8992 118.726 13.8992C117.956 13.8992 117.431 14.56 117.431 15.3328V18.816H116.136V14.6384C116.136 14.1232 116.124 13.5632 116.091 12.9584H117.23L117.286 13.8656H117.319C117.665 13.2384 118.38 12.8352 119.173 12.8352C120.401 12.8352 121.205 13.776 121.205 15.3104V18.8272ZM129.704 13.944H128.274V16.7888C128.274 17.5168 128.531 17.8752 129.034 17.8752C129.257 17.8752 129.458 17.8528 129.614 17.8192L129.648 18.8048C129.391 18.9056 129.056 18.9504 128.643 18.9504C127.615 18.9504 127.012 18.3792 127.012 16.9008V13.944H126.164V12.9696H127.012V11.8944L128.285 11.5024V12.9584H129.715V13.944H129.704ZM136.583 18.8272H135.287V15.4784C135.287 14.4256 134.885 13.8992 134.104 13.8992C133.433 13.8992 132.808 14.3584 132.808 15.288V18.816H131.513V10.2704H132.808V13.7872H132.83C133.244 13.1488 133.824 12.8352 134.584 12.8352C135.823 12.8352 136.583 13.7984 136.583 15.3328V18.8272ZM143.216 16.2064H139.319C139.341 17.3152 140.078 17.9424 141.161 17.9424C141.742 17.9424 142.267 17.8416 142.736 17.6624L142.937 18.5696C142.39 18.816 141.742 18.928 140.983 18.928C139.151 18.928 138.068 17.7744 138.068 15.9712C138.068 14.1792 139.173 12.824 140.837 12.824C142.323 12.824 143.272 13.9328 143.272 15.6128C143.272 15.848 143.261 16.0496 143.216 16.2064ZM142.032 15.2768C142.032 14.3696 141.574 13.7312 140.748 13.7312C140 13.7312 139.408 14.3808 139.33 15.2768H142.032Z" fill="black"/>
</g>
<defs>
<clipPath id="clip0_224_244">
<rect width="165" height="56" fill="white"/>
</clipPath>
</defs>
</svg>
