<svg width="172" height="56" viewBox="0 0 172 56" fill="none" xmlns="http://www.w3.org/2000/svg">
<g clip-path="url(#clip0_224_248)">
<path d="M172 48.4316C172 52.6108 168.596 56 164.398 56H7.60327C3.40482 56.0003 0 52.6111 0 48.4316V7.5677C0 3.3889 3.40482 0 7.60327 0H164.398C168.596 0 172 3.3889 172 7.5677V48.4316H172Z" fill="#F2F3F7"/>
<path d="M12.9014 10.7812V48.7044L32.1143 29.743L12.9014 10.7812Z" fill="url(#paint0_linear_224_248)"/>
<path d="M37.2745 24.6498L29.5189 20.1931L12.9014 10.6433V10.7812L32.1143 29.743L37.2745 24.6498Z" fill="url(#paint1_linear_224_248)"/>
<path d="M12.9014 48.7045V48.8424L29.5189 39.2922L37.2742 34.8356L32.1143 29.743L12.9014 48.7045Z" fill="url(#paint2_linear_224_248)"/>
<path d="M37.2745 24.6497L32.1143 29.7429L37.2741 34.8354L46.1374 29.7425L37.2745 24.6497Z" fill="url(#paint3_linear_224_248)"/>
<path d="M133.859 37.156C133.137 37.156 132.479 37.0235 131.882 36.7587C131.286 36.4936 130.785 36.0859 130.381 35.5364H130.259C130.34 36.1803 130.381 36.7909 130.381 37.3675V41.9058H128.703V25.9259H130.068L130.3 27.4355H130.381C130.812 26.8313 131.315 26.3959 131.887 26.1274C132.46 25.859 133.117 25.7248 133.858 25.7248C135.328 25.7248 136.462 26.2248 137.26 27.2243C138.059 28.2237 138.459 29.6261 138.459 31.4302C138.459 33.2416 138.052 34.6484 137.241 35.6522C136.429 36.6549 135.302 37.156 133.859 37.156ZM133.616 27.1436C132.484 27.1436 131.665 27.4559 131.159 28.0795C130.654 28.7033 130.394 29.6964 130.381 31.0584V31.4302C130.381 32.9802 130.64 34.0887 131.159 34.7565C131.679 35.4243 132.511 35.7573 133.656 35.7573C134.614 35.7573 135.364 35.372 135.907 34.6005C136.449 33.8294 136.72 32.766 136.72 31.4101C136.72 30.0355 136.449 28.9798 135.907 28.2455C135.364 27.5104 134.6 27.1436 133.616 27.1436ZM142.345 36.9545H140.667V21.297H142.345V36.9545ZM151.994 36.9545L151.66 35.3848H151.579C151.026 36.0762 150.475 36.5445 149.926 36.7885C149.377 37.0338 148.691 37.156 147.869 37.156C146.77 37.156 145.909 36.8742 145.285 36.3109C144.662 35.7476 144.35 34.9463 144.35 33.906C144.35 31.6792 146.14 30.5117 149.719 30.404L151.6 30.3434V29.6593C151.6 28.7937 151.412 28.1544 151.038 27.7424C150.665 27.3293 150.065 27.1232 149.244 27.1232C148.32 27.1232 147.275 27.405 146.11 27.9683L145.594 26.6904C146.14 26.3952 146.738 26.1639 147.389 25.9962C148.039 25.8285 148.691 25.7446 149.345 25.7446C150.666 25.7446 151.645 26.0361 152.282 26.6198C152.919 27.2035 153.237 28.1393 153.237 29.4277V36.9542H151.994V36.9545H151.994ZM148.202 35.7777C149.246 35.7777 150.067 35.4925 150.664 34.9225C151.26 34.3525 151.559 33.5539 151.559 32.527V31.5309L149.88 31.6009C148.545 31.6487 147.584 31.8543 146.993 32.2208C146.404 32.5863 146.109 33.1549 146.109 33.9264C146.109 34.5299 146.292 34.9898 146.66 35.3044C147.028 35.62 147.541 35.7777 148.202 35.7777ZM154.211 25.9259H156.01L158.437 32.2154C158.969 33.6513 159.3 34.6875 159.428 35.3251H159.509C159.597 34.9824 159.781 34.3977 160.06 33.5683C160.34 32.7396 161.255 30.1927 162.805 25.9259H164.605L159.843 38.4844C159.371 39.7255 158.82 40.6061 158.189 41.1269C157.559 41.6464 156.785 41.9058 155.87 41.9058C155.357 41.9058 154.852 41.8489 154.353 41.7351V40.3969C154.723 40.4773 155.138 40.5178 155.596 40.5178C156.749 40.5178 157.571 39.8738 158.063 38.5855L158.68 37.0161L154.211 25.9259ZM102.77 26.9508C103.303 27.3896 104.415 28.3114 104.415 30.0656C104.415 31.7716 103.442 32.5806 102.468 33.3407C102.167 33.6402 101.819 33.9642 101.819 34.4723C101.819 34.9787 102.166 35.2559 102.422 35.4637L103.257 36.1083C104.277 36.9622 105.203 37.7471 105.203 39.3393C105.203 41.5075 103.093 43.6981 99.1079 43.6981C95.7468 43.6981 94.1253 42.1069 94.1253 40.3989C94.1253 39.5689 94.5406 38.393 95.9099 37.5847C97.3458 36.7081 99.2939 36.594 100.336 36.5231C100.011 36.1084 99.6409 35.6699 99.6409 34.956C99.6409 34.5644 99.7573 34.3334 99.8727 34.0553C99.6167 34.0787 99.3622 34.1018 99.1302 34.1018C96.6743 34.1018 95.2838 32.2793 95.2838 30.481C95.2838 29.4196 95.7711 28.2424 96.7665 27.3899C98.088 26.3059 99.6638 26.1207 100.916 26.1207H105.69L104.206 26.9511H102.77V26.9508H102.77ZM101.124 37.1935C100.939 37.1694 100.822 37.1694 100.592 37.1694C100.383 37.1694 99.1298 37.2166 98.1576 37.5402C97.6478 37.7233 96.1641 38.2769 96.1641 39.9156C96.1641 41.5527 97.7641 42.7309 100.244 42.7309C102.468 42.7309 103.651 41.6675 103.651 40.2386C103.651 39.0598 102.886 38.4396 101.124 37.1935ZM101.796 32.8098C102.329 32.2787 102.375 31.5413 102.375 31.1256C102.375 29.4651 101.378 26.8815 99.4553 26.8815C98.852 26.8815 98.2037 27.1811 97.8327 27.643C97.4393 28.1273 97.3223 28.7495 97.3223 29.35C97.3223 30.8953 98.2262 33.4562 100.22 33.4562C100.8 33.4562 101.424 33.1794 101.796 32.8098ZM88.1792 36.8243C84.5006 36.8243 82.5338 33.9683 82.5338 31.3883C82.5338 28.3709 85.0091 25.7927 88.5276 25.7927C91.9274 25.7927 94.0564 28.4403 94.0564 31.2277C94.0567 33.9442 91.9519 36.8243 88.1792 36.8243ZM91.0712 34.959C91.6274 34.2213 91.7663 33.3005 91.7663 32.4015C91.7663 30.3742 90.7944 26.5057 87.925 26.5057C87.1616 26.5057 86.3983 26.8056 85.8431 27.2902C84.9405 28.0952 84.7778 29.109 84.7778 30.1004C84.7778 32.3788 85.9117 36.1318 88.7122 36.1318C89.6144 36.1318 90.5402 35.695 91.0712 34.959ZM75.6377 36.8243C71.9584 36.8243 69.9912 33.9683 69.9912 31.3883C69.9912 28.3709 72.4675 25.7927 75.985 25.7927C79.3858 25.7927 81.5144 28.4403 81.5144 31.2277C81.5148 33.9442 79.4097 36.8243 75.6377 36.8243ZM78.5303 34.959C79.0855 34.2213 79.2248 33.3005 79.2248 32.4015C79.2248 30.3742 78.2522 26.5057 75.3827 26.5057C74.6197 26.5057 73.8557 26.8056 73.3008 27.2902C72.3983 28.0952 72.2365 29.109 72.2365 30.1004C72.2365 32.3788 73.3698 36.1318 76.1707 36.1318C77.0732 36.1318 77.9984 35.695 78.5303 34.959ZM68.2237 36.4632L64.8965 37.2273C63.5467 37.4361 62.3375 37.6199 61.0586 37.6199C54.637 37.6199 52.1953 32.9193 52.1953 29.2375C52.1953 24.7461 55.661 20.5793 61.594 20.5793C62.8506 20.5793 64.0593 20.7641 65.1525 21.0653C66.8971 21.5517 67.7113 22.1531 68.2234 22.5009L66.2918 24.3301L65.478 24.5145L66.0594 23.588C65.2688 22.8246 63.8252 21.4124 61.0812 21.4124C57.4053 21.4124 54.6364 24.1922 54.6364 28.2438C54.6364 32.5956 57.8008 36.6941 62.8712 36.6941C64.3616 36.6941 65.1276 36.3936 65.826 36.1151V32.3881L62.314 32.5732L64.1742 31.5765H69.1064L68.5022 32.1552C68.3381 32.2948 68.3156 32.3416 68.2691 32.525C68.2449 32.7339 68.2231 33.406 68.2231 33.6373V36.4632H68.2237V36.4632Z" fill="black"/>
<path d="M110.123 35.7965C109.355 35.7269 109.194 35.5886 109.194 34.6846V21.5795C109.199 21.5296 109.202 21.4784 109.206 21.4302C109.3 20.6202 109.532 20.4813 110.254 20.064H106.927L105.181 20.8977H106.96V20.9081L106.959 20.8997V35.1947C106.959 35.6569 106.867 35.7272 106.331 36.421H110.449L111.31 35.913C110.915 35.8651 110.519 35.8427 110.123 35.7965ZM119.589 36.0094C119.336 36.1476 119.081 36.3093 118.828 36.4234C118.065 36.7681 117.279 36.8605 116.585 36.8605C115.847 36.8605 114.691 36.813 113.512 35.9632C111.873 34.8124 111.157 32.835 111.157 31.1109C111.157 27.5473 114.068 25.7998 116.447 25.7998C117.279 25.7998 118.135 26.0063 118.828 26.4442C119.982 27.2016 120.282 28.1903 120.443 28.7195L115.015 30.9048L113.236 31.0427C113.813 33.963 115.799 35.6633 117.995 35.6633C119.173 35.6633 120.028 35.2502 120.813 34.86L119.589 36.0094ZM117.418 29.1559C117.856 28.9956 118.087 28.857 118.087 28.5354C118.087 27.6163 117.048 26.5579 115.799 26.5579C114.874 26.5579 113.143 27.2712 113.143 29.7541C113.143 30.145 113.189 30.5587 113.213 30.974L117.418 29.1559ZM121.819 25.9571V27.4744H121.634V25.9571H121.129V25.7998H122.323V25.9571H121.819ZM123.897 27.4744V25.9431H123.889L123.419 27.4744H123.274L122.801 25.9431H122.795V27.4744H122.627V25.7998H122.915L123.343 27.1534H123.349L123.771 25.7998H124.063V27.4744H123.897Z" fill="black"/>
<path d="M56.8157 16.0709H55.6595C55.6595 15.9125 55.5499 15.4644 55.3306 14.726H53.6617C53.4354 15.4523 53.3221 15.9005 53.3221 16.0709H52.2349C52.2349 15.9774 52.516 15.2103 53.0782 13.7698C53.6405 12.3292 53.9216 11.5356 53.9216 11.3897H55.2873C55.2873 11.5262 55.5418 12.3081 56.0513 13.7356C56.5608 15.1631 56.8157 15.9413 56.8157 16.0709ZM55.1467 14.0392C54.7348 12.8024 54.529 12.1337 54.529 12.0329H54.4711C54.4711 12.1264 54.2579 12.7951 53.8319 14.0392H55.1467ZM61.4738 16.0709H60.5816C60.5816 15.9725 60.2504 15.4537 59.5883 14.5141C58.8949 13.5241 58.4997 12.8473 58.4036 12.4828H58.3457C58.4059 13.0076 58.4362 13.4822 58.4362 13.9067C58.4362 14.4988 58.4531 15.2204 58.4867 16.0712H57.5979C57.6338 15.3282 57.652 14.5122 57.652 13.6228C57.652 12.748 57.6339 12.0035 57.5979 11.39H58.6706C58.6706 11.5172 58.9679 12.0243 59.5627 12.9109C60.196 13.8528 60.5598 14.4917 60.6537 14.8275H60.7078C60.65 14.2929 60.621 13.8136 60.621 13.3892C60.621 12.7399 60.6042 12.0732 60.5706 11.39H61.4738C61.4399 11.9845 61.4234 12.7288 61.4234 13.6228C61.423 14.5235 61.4398 15.3395 61.4738 16.0709ZM66.7093 13.5683C66.7093 14.2491 66.4901 14.8435 66.0519 15.3516C65.6134 15.86 64.9993 16.1137 64.2094 16.1137C63.853 16.1137 63.3617 16.0993 62.7355 16.0705C62.7668 15.3466 62.7826 14.5302 62.7826 13.6222C62.7826 12.7499 62.7668 12.0056 62.7355 11.3893H63.3677C63.4713 11.3893 63.6253 11.3856 63.8301 11.3786C64.0346 11.3716 64.1684 11.3679 64.2309 11.3679C65.1002 11.3679 65.7304 11.5838 66.1222 12.0152C66.5136 12.4467 66.7093 12.9641 66.7093 13.5683ZM65.7233 13.7229C65.7233 13.2626 65.5885 12.8751 65.3188 12.5594C65.0491 12.2445 64.6371 12.0869 64.0833 12.0869C63.9797 12.0869 63.8378 12.0976 63.6569 12.1193C63.6808 12.5989 63.6929 13.0996 63.6929 13.6222C63.6929 14.1952 63.705 14.7632 63.7288 15.3265C63.8834 15.3575 64.0406 15.3732 64.1983 15.3733C64.7161 15.3733 65.0995 15.213 65.3487 14.893C65.5979 14.5731 65.7233 14.1831 65.7233 13.7229ZM71.5373 16.0709H70.4679C70.1885 15.2224 69.9743 14.6986 69.825 14.4998C69.6757 14.3006 69.4349 14.2012 69.1026 14.2012C68.9627 14.2012 68.8292 14.2025 68.7018 14.2049C68.7018 14.8211 68.7125 15.443 68.7344 16.0709H67.7303C67.7615 15.3469 67.7774 14.5305 67.7774 13.6225C67.7774 12.7503 67.7616 12.0059 67.7303 11.3897H68.3551C68.4274 11.3897 68.5784 11.386 68.8084 11.379C69.0384 11.3719 69.2509 11.3682 69.446 11.3682C70.5513 11.3682 71.1042 11.7444 71.1042 12.4972C71.1042 13.094 70.7887 13.5097 70.1579 13.745V13.7989C70.401 13.8658 70.6142 14.0549 70.7971 14.3649C70.9797 14.6751 71.2266 15.2438 71.5373 16.0709ZM70.1827 12.7629C70.1827 12.286 69.8744 12.0474 69.258 12.0474C69.0317 12.0474 68.8315 12.0641 68.6584 12.0976C68.685 12.4691 68.6981 12.9534 68.6981 13.5502C68.8306 13.5552 68.9426 13.5572 69.034 13.5572C69.7997 13.5576 70.1827 13.2928 70.1827 12.7629ZM76.7153 13.6439C76.7153 14.3796 76.4889 14.9897 76.036 15.4741C75.583 15.9581 75.0231 16.2004 74.3563 16.2004C73.7204 16.2004 73.1881 15.9781 72.7596 15.5333C72.3309 15.0888 72.1167 14.5235 72.1167 13.8383C72.1167 13.1027 72.343 12.4925 72.796 12.0082C73.2486 11.5242 73.8085 11.2819 74.4756 11.2819C75.1116 11.2819 75.6436 11.5034 76.0723 11.9469C76.5011 12.3904 76.7153 12.9558 76.7153 13.6439ZM75.7186 13.748C75.7186 13.2469 75.5897 12.8406 75.3322 12.529C75.0743 12.2174 74.7565 12.0618 74.3785 12.0618C74.0267 12.0618 73.7281 12.2187 73.4826 12.5327C73.2372 12.8466 73.1137 13.2433 73.1137 13.7229C73.1137 14.2213 73.2432 14.6269 73.5021 14.9399C73.7611 15.2529 74.0782 15.4092 74.4542 15.4092C74.8056 15.4092 75.1045 15.2515 75.35 14.9362C75.5955 14.6212 75.7186 14.2249 75.7186 13.748ZM78.7579 16.0709H77.7356C77.7668 15.3278 77.7826 14.5118 77.7826 13.6225C77.7826 12.7476 77.7669 12.0032 77.7356 11.3897H78.7579C78.7266 11.9938 78.7108 12.7379 78.7108 13.6225C78.7108 14.5259 78.7266 15.3422 78.7579 16.0709ZM83.9937 13.5683C83.9937 14.2491 83.7745 14.8435 83.3363 15.3516C82.8978 15.86 82.2837 16.1137 81.4938 16.1137C81.1374 16.1137 80.6461 16.0993 80.0199 16.0705C80.0512 15.3466 80.067 14.5302 80.067 13.6222C80.067 12.7499 80.0512 12.0056 80.0199 11.3893H80.6521C80.7557 11.3893 80.9097 11.3856 81.1145 11.3786C81.319 11.3716 81.4528 11.3679 81.5154 11.3679C82.3846 11.3679 83.0148 11.5838 83.4066 12.0152C83.798 12.4467 83.9937 12.9641 83.9937 13.5683ZM83.0077 13.7229C83.0077 13.2626 82.8729 12.8751 82.6032 12.5594C82.3335 12.2445 81.9216 12.0869 81.3677 12.0869C81.2641 12.0869 81.1222 12.0976 80.9413 12.1193C80.9652 12.5989 80.9772 13.0996 80.9772 13.6222C80.9772 14.1952 80.9894 14.7632 81.0132 15.3265C81.1678 15.3575 81.325 15.3732 81.4827 15.3733C82.0005 15.3733 82.3839 15.213 82.6331 14.893C82.8823 14.5731 83.0077 14.1831 83.0077 13.7229ZM90.9399 16.0709H89.7838C89.7838 15.9125 89.6741 15.4644 89.4546 14.726H87.7856C87.5593 15.4523 87.4459 15.9005 87.4459 16.0709H86.3591C86.3591 15.9774 86.6402 15.2103 87.2025 13.7698C87.7647 12.3292 88.0459 11.5356 88.0459 11.3897H89.4115C89.4115 11.5262 89.6664 12.3081 90.1755 13.7356C90.6847 15.1631 90.9399 15.9413 90.9399 16.0709ZM89.2709 14.0392C88.859 12.8024 88.6528 12.1337 88.6528 12.0329H88.595C88.595 12.1264 88.3821 12.7951 87.9561 14.0392H89.2709ZM95.1535 12.6154C95.1535 13.1884 94.9396 13.6114 94.5122 13.8846C94.0847 14.1577 93.5605 14.2945 92.939 14.2945C92.8257 14.2945 92.7453 14.2922 92.6969 14.2875C92.6969 14.7384 92.71 15.3325 92.7366 16.0709H91.7213C91.7526 15.3784 91.7684 14.562 91.7684 13.6225C91.7684 12.7596 91.7527 12.0152 91.7213 11.3897H92.3499C92.439 11.3897 92.6098 11.386 92.8627 11.379C93.1156 11.3719 93.3345 11.3682 93.5201 11.3682C93.9774 11.3682 94.3642 11.4713 94.6796 11.6775C94.995 11.8837 95.1535 12.196 95.1535 12.6154ZM94.2216 12.8132C94.2216 12.3004 93.8796 12.0437 93.1957 12.0437C93.0245 12.0437 92.8439 12.0617 92.6539 12.0976C92.6805 12.5508 92.6936 13.0635 92.6936 13.6365C92.7538 13.6416 92.8237 13.6436 92.9031 13.6436C93.7821 13.6439 94.2216 13.3671 94.2216 12.8132ZM99.4861 12.6154C99.4861 13.1884 99.2722 13.6114 98.8451 13.8846C98.4177 14.1577 97.8931 14.2945 97.2717 14.2945C97.1584 14.2945 97.078 14.2922 97.0296 14.2875C97.0296 14.7384 97.0427 15.3325 97.0692 16.0709H96.054C96.0853 15.3784 96.1011 14.562 96.1011 13.6225C96.1011 12.7596 96.0853 12.0152 96.054 11.3897H96.6825C96.7717 11.3897 96.9425 11.386 97.1953 11.379C97.4482 11.3719 97.6672 11.3682 97.8528 11.3682C98.3101 11.3682 98.6968 11.4713 99.0123 11.6775C99.3277 11.8837 99.4861 12.196 99.4861 12.6154ZM98.5543 12.8132C98.5543 12.3004 98.2123 12.0437 97.5283 12.0437C97.3571 12.0437 97.1765 12.0617 96.9865 12.0976C97.0131 12.5508 97.0262 13.0635 97.0262 13.6365C97.0864 13.6416 97.1564 13.6436 97.2357 13.6436C98.1147 13.6439 98.5543 13.3671 98.5543 12.8132ZM106.57 13.6439C106.57 14.3796 106.343 14.9897 105.891 15.4741C105.438 15.9584 104.878 16.2004 104.211 16.2004C103.575 16.2004 103.043 15.9781 102.614 15.5333C102.186 15.0888 101.971 14.5235 101.971 13.8383C101.971 13.1027 102.198 12.4925 102.65 12.0082C103.103 11.5239 103.663 11.2819 104.33 11.2819C104.966 11.2819 105.498 11.5034 105.927 11.9469C106.355 12.3904 106.57 12.9558 106.57 13.6439ZM105.573 13.748C105.573 13.2469 105.444 12.8406 105.186 12.529C104.929 12.2174 104.611 12.0618 104.233 12.0618C103.881 12.0618 103.582 12.2187 103.337 12.5327C103.091 12.8466 102.968 13.2433 102.968 13.7229C102.968 14.2213 103.098 14.6269 103.357 14.9399C103.616 15.2529 103.933 15.4092 104.308 15.4092C104.66 15.4092 104.959 15.2515 105.204 14.9362C105.45 14.6212 105.573 14.2249 105.573 13.748ZM111.466 16.0709H110.574C110.574 15.9725 110.243 15.4537 109.581 14.5141C108.887 13.5241 108.492 12.8473 108.396 12.4828H108.338C108.398 13.0076 108.428 13.4822 108.428 13.9067C108.428 14.4988 108.445 15.2204 108.479 16.0712H107.59C107.626 15.3282 107.644 14.5122 107.644 13.6228C107.644 12.748 107.626 12.0035 107.59 11.39H108.663C108.663 11.5172 108.96 12.0243 109.555 12.9109C110.189 13.8528 110.552 14.4917 110.646 14.8275H110.7C110.642 14.2929 110.613 13.8136 110.613 13.3892C110.613 12.7399 110.596 12.0732 110.563 11.39H111.466C111.432 11.9845 111.416 12.7288 111.416 13.6228C111.416 14.5235 111.432 15.3395 111.466 16.0709Z" fill="black"/>
</g>
<defs>
<linearGradient id="paint0_linear_224_248" x1="22.5078" y1="10.7813" x2="22.5078" y2="48.7045" gradientUnits="userSpaceOnUse">
<stop stop-color="#257CB0"/>
<stop offset="0.286" stop-color="#4A93B5"/>
<stop offset="0.767" stop-color="#78BCBB"/>
<stop offset="1" stop-color="#89CFBD"/>
</linearGradient>
<linearGradient id="paint1_linear_224_248" x1="12.9017" y1="20.1929" x2="37.2748" y2="20.1929" gradientUnits="userSpaceOnUse">
<stop stop-color="#52C1AD"/>
<stop offset="1" stop-color="#DEE89A"/>
</linearGradient>
<linearGradient id="paint2_linear_224_248" x1="25.0878" y1="29.7431" x2="25.0878" y2="48.8424" gradientUnits="userSpaceOnUse">
<stop stop-color="#EC413D"/>
<stop offset="0.167" stop-color="#DA4452"/>
<stop offset="0.575" stop-color="#B0487A"/>
<stop offset="0.862" stop-color="#954A92"/>
<stop offset="1" stop-color="#8A4A9D"/>
</linearGradient>
<linearGradient id="paint3_linear_224_248" x1="39.126" y1="24.6497" x2="39.126" y2="34.8351" gradientUnits="userSpaceOnUse">
<stop stop-color="#F58879"/>
<stop offset="0.119" stop-color="#F69079"/>
<stop offset="0.713" stop-color="#FCB877"/>
<stop offset="1" stop-color="#FEC874"/>
</linearGradient>
<clipPath id="clip0_224_248">
<rect width="172" height="56" fill="white"/>
</clipPath>
</defs>
</svg>
