<svg width="23" height="18" viewBox="0 0 23 18" fill="none" xmlns="http://www.w3.org/2000/svg">
<path fill-rule="evenodd" clip-rule="evenodd" d="M0 1.27273C0 0.569819 0.569819 0 1.27273 0H21.6364C22.3393 0 22.9091 0.569819 22.9091 1.27273C22.9091 1.97563 22.3393 2.54545 21.6364 2.54545H1.27273C0.569819 2.54545 0 1.97563 0 1.27273ZM0 16.5455C0 15.8425 0.569819 15.2727 1.27273 15.2727H21.6364C22.3393 15.2727 22.9091 15.8425 22.9091 16.5455C22.9091 17.2484 22.3393 17.8182 21.6364 17.8182H1.27273C0.569819 17.8182 0 17.2484 0 16.5455ZM1.27273 7.63636C0.569819 7.63636 0 8.20619 0 8.90909C0 9.61199 0.569819 10.1818 1.27273 10.1818H21.6364C22.3393 10.1818 22.9091 9.61199 22.9091 8.90909C22.9091 8.20619 22.3393 7.63636 21.6364 7.63636H1.27273Z" fill="#0D0D0D"/>
</svg>
