<svg width="97" height="17" viewBox="0 0 97 17" fill="none" xmlns="http://www.w3.org/2000/svg">
<path d="M18.285 -4.41074e-06V16.146H14.352V6.463L10.741 16.146H7.56698L3.93297 6.44V16.146H-2.53282e-05V-4.41074e-06H4.64597L9.17698 11.178L13.662 -4.41074e-06H18.285ZM25.4463 -4.41074e-06V16.146H21.5133V-4.41074e-06H25.4463ZM32.6295 13.11H37.7815V16.146H28.6965V-4.41074e-06H32.6295V13.11ZM50.1084 13.294H44.0824L43.1164 16.146H38.9994L44.8414 -4.41074e-06H49.3954L55.2374 16.146H51.0744L50.1084 13.294ZM49.0964 10.258L47.0954 4.347L45.1174 10.258H49.0964ZM71.8594 16.146H67.9264L61.3484 6.187V16.146H57.4154V-4.41074e-06H61.3484L67.9264 10.005V-4.41074e-06H71.8594V16.146ZM81.1593 -4.41074e-06C82.8613 -4.41074e-06 84.3487 0.337329 85.6213 1.01199C86.894 1.68666 87.8753 2.63733 88.5653 3.864C89.2707 5.07533 89.6233 6.47833 89.6233 8.073C89.6233 9.65233 89.2707 11.0553 88.5653 12.282C87.8753 13.5087 86.8863 14.4593 85.5983 15.134C84.3257 15.8087 82.846 16.146 81.1593 16.146H75.1103V-4.41074e-06H81.1593ZM80.9063 12.742C82.3937 12.742 83.5513 12.3357 84.3793 11.523C85.2073 10.7103 85.6213 9.56033 85.6213 8.073C85.6213 6.58566 85.2073 5.428 84.3793 4.6C83.5513 3.772 82.3937 3.35799 80.9063 3.35799H79.0433V12.742H80.9063ZM96.1543 -4.41074e-06V16.146H92.2213V-4.41074e-06H96.1543Z" fill="#0D0D0D"/>
</svg>
